0
SECTION
2
HEADER
9
$INSUNITS
70
4
9
$ACADVER
1
AC1014
9
$HANDSEED
5
FFFF
0
ENDSEC
0
SECTION
2
TABLES
0
TABLE
2
VPORT
5
8
100
AcDbSymbolTable
0
ENDTAB
0
TABLE
2
LTYPE
5
5
100
AcDbSymbolTable
0
LTYPE
5
14
100
AcDbSymbolTableRecord
100
AcDbLinetypeTableRecord
2
BYBLOCK
70
0
0
LTYPE
5
15
100
AcDbSymbolTableRecord
100
AcDbLinetypeTableRecord
2
BYLAYER
70
0
0
ENDTAB
0
TABLE
2
LAYER
5
2
100
AcDbSymbolTable
70
2
0
LAYER
5
50
100
AcDbSymbolTableRecord
100
AcDbLayerTableRecord
2
0
70
0
6
CONTINUOUS
0
ENDTAB
0
TABLE
2
STYLE
5
3
100
AcDbSymbolTable
70
1
0
STYLE
5
11
100
AcDbSymbolTableRecord
100
AcDbTextStyleTableRecord
2
STANDARD
70
0
0
ENDTAB
0
TABLE
2
VIEW
5
6
100
AcDbSymbolTable
70
0
0
ENDTAB
0
TABLE
2
UCS
5
7
100
AcDbSymbolTable
70
0
0
ENDTAB
0
TABLE
2
APPID
5
9
100
AcDbSymbolTable
70
2
0
APPID
5
12
100
AcDbSymbolTableRecord
100
AcDbRegAppTableRecord
2
ACAD
70
0
0
ENDTAB
0
TABLE
2
DIMSTYLE
5
A
100
AcDbSymbolTable
70
1
0
ENDTAB
0
TABLE
2
BLOCK_RECORD
5
1
100
AcDbSymbolTable
70
1
0
BLOCK_RECORD
5
1F
100
AcDbSymbolTableRecord
100
AcDbBlockTableRecord
2
*MODEL_SPACE
0
BLOCK_RECORD
5
1B
100
AcDbSymbolTableRecord
100
AcDbBlockTableRecord
2
*PAPER_SPACE
0
ENDTAB
0
ENDSEC
0
SECTION
2
BLOCKS
0
BLOCK
5
20
100
AcDbEntity
100
AcDbBlockBegin
2
*MODEL_SPACE
0
ENDBLK
5
21
100
AcDbEntity
100
AcDbBlockEnd
0
BLOCK
5
1C
100
AcDbEntity
100
AcDbBlockBegin
2
*PAPER_SPACE
0
ENDBLK
5
1D
100
AcDbEntity
100
AcDbBlockEnd
0
ENDSEC
0
SECTION
2
ENTITIES
0
CIRCLE
5
100
100
AcDbEntity
8
0
100
AcDbCircle
10
-230.68137359017533
20
-174.93182586137385
30
0
40
2.7499999999999858
210
0
220
-0
230
1
0
CIRCLE
5
101
100
AcDbEntity
8
0
100
AcDbCircle
10
-20.261373590175978
20
-154.93182586137374
30
0
40
2.7499999999999991
210
0
220
-0
230
1
0
CIRCLE
5
102
100
AcDbEntity
8
0
100
AcDbCircle
10
-230.68137359017607
20
-154.93182586137394
30
0
40
2.7499999999999858
210
0
220
-0
230
1
0
CIRCLE
5
103
100
AcDbEntity
8
0
100
AcDbCircle
10
-20.261373590176635
20
-174.93182586137368
30
0
40
2.7499999999999947
210
0
220
-0
230
1
0
LWPOLYLINE
5
104
100
AcDbEntity
8
0
100
AcDbPolyline
90
24
70
1
43
0.0
10
-40.187105093091027
20
-129.88728552978597
42
-0.30958930562980091
10
-34.640713846581733
20
-133.78725827571782
10
-29.900764177261252
20
-142.53460064028911
42
0.26184870726850779
10
-27.412509351479549
20
-144.10160817784632
10
-10.761373590175548
20
-144.93182586137411
42
-0.41421356237309243
10
-10.261373590175562
20
-145.43182586137408
10
-10.261373590176841
20
-184.43182586137394
42
-0.41421356237307294
10
-10.761373590176845
20
-184.93182586137391
10
-30.261373590176834
20
-184.93182586137391
10
-35.003923410032272
20
-180.18927604151844
10
-110.72882377032042
20
-180.18927604151844
10
-115.47137359017597
20
-184.93182586137402
10
-135.47137359017668
20
-184.93182586137397
10
-140.21392341003224
20
-180.18927604151841
10
-215.93882377032037
20
-180.18927604151827
10
-220.68137359017581
20
-184.93182586137368
10
-240.1813735901751
20
-184.93182586137411
42
-0.41421356237315748
10
-240.68137359017513
20
-184.43182586137411
10
-240.68137359017646
20
-145.43182586137436
42
-0.41421356237313667
10
-240.18137359017646
20
-144.93182586137434
10
-223.53023782887294
20
-144.10160817784612
42
0.26184870726850917
10
-221.04198300309127
20
-142.53460064028889
10
-216.30203333399885
20
-133.78725827563275
42
-0.30958930562981113
10
-210.75564208726419
20
-129.88728552954228
0
CIRCLE
5
105
100
AcDbEntity
8
0
100
AcDbCircle
10
-125.49670402528568
20
-151.37901529140652
30
0
40
1.6000000000000014
210
0
220
0
230
1
0
CIRCLE
5
106
100
AcDbEntity
8
0
100
AcDbCircle
10
-125.49673417793872
20
-173.37901529138583
30
0
40
1.6000000000000014
210
0
220
0
230
1
0
ENDSEC
0
SECTION
2
OBJECTS
0
DICTIONARY
5
C
100
AcDbDictionary
3
ACAD_GROUP
350
D
3
ACAD_MLINESTYLE
350
17
0
DICTIONARY
5
D
100
AcDbDictionary
0
DICTIONARY
5
1A
330
C
100
AcDbDictionary
0
DICTIONARY
5
17
100
AcDbDictionary
0
ENDSEC
0
EOF
