0
SECTION
2
HEADER
9
$INSUNITS
70
4
9
$ACADVER
1
AC1014
9
$HANDSEED
5
FFFF
0
ENDSEC
0
SECTION
2
TABLES
0
TABLE
2
VPORT
5
8
100
AcDbSymbolTable
0
ENDTAB
0
TABLE
2
LTYPE
5
5
100
AcDbSymbolTable
0
LTYPE
5
14
100
AcDbSymbolTableRecord
100
AcDbLinetypeTableRecord
2
BYBLOCK
70
0
0
LTYPE
5
15
100
AcDbSymbolTableRecord
100
AcDbLinetypeTableRecord
2
BYLAYER
70
0
0
ENDTAB
0
TABLE
2
LAYER
5
2
100
AcDbSymbolTable
70
2
0
LAYER
5
50
100
AcDbSymbolTableRecord
100
AcDbLayerTableRecord
2
0
70
0
6
CONTINUOUS
0
ENDTAB
0
TABLE
2
STYLE
5
3
100
AcDbSymbolTable
70
1
0
STYLE
5
11
100
AcDbSymbolTableRecord
100
AcDbTextStyleTableRecord
2
STANDARD
70
0
0
ENDTAB
0
TABLE
2
VIEW
5
6
100
AcDbSymbolTable
70
0
0
ENDTAB
0
TABLE
2
UCS
5
7
100
AcDbSymbolTable
70
0
0
ENDTAB
0
TABLE
2
APPID
5
9
100
AcDbSymbolTable
70
2
0
APPID
5
12
100
AcDbSymbolTableRecord
100
AcDbRegAppTableRecord
2
ACAD
70
0
0
ENDTAB
0
TABLE
2
DIMSTYLE
5
A
100
AcDbSymbolTable
70
1
0
ENDTAB
0
TABLE
2
BLOCK_RECORD
5
1
100
AcDbSymbolTable
70
1
0
BLOCK_RECORD
5
1F
100
AcDbSymbolTableRecord
100
AcDbBlockTableRecord
2
*MODEL_SPACE
0
BLOCK_RECORD
5
1B
100
AcDbSymbolTableRecord
100
AcDbBlockTableRecord
2
*PAPER_SPACE
0
ENDTAB
0
ENDSEC
0
SECTION
2
BLOCKS
0
BLOCK
5
20
100
AcDbEntity
100
AcDbBlockBegin
2
*MODEL_SPACE
0
ENDBLK
5
21
100
AcDbEntity
100
AcDbBlockEnd
0
BLOCK
5
1C
100
AcDbEntity
100
AcDbBlockBegin
2
*PAPER_SPACE
0
ENDBLK
5
1D
100
AcDbEntity
100
AcDbBlockEnd
0
ENDSEC
0
SECTION
2
ENTITIES
0
CIRCLE
5
100
100
AcDbEntity
8
0
100
AcDbCircle
10
230.05209982745785
20
176.8426763624299
30
-3.5527136788005009e-14
40
1.7499999999999727
210
4.5678052379125749e-58
220
1.8016814874264964e-87
230
1
0
CIRCLE
5
101
100
AcDbEntity
8
0
100
AcDbCircle
10
21.031352030377263
20
176.84267636242652
30
-1.7763568394002505e-14
40
1.7500000000000127
210
1.8200458569897407e-46
220
-3.9443045261050599e-31
230
1
0
CIRCLE
5
102
100
AcDbEntity
8
0
100
AcDbCircle
10
230.05209982745785
20
-32.157306917571624
30
-1.7763568394002505e-14
40
1.7500000000000082
210
1.8200458569897244e-46
220
6.9993447336572477e-76
230
1
0
CIRCLE
5
103
100
AcDbEntity
8
0
100
AcDbCircle
10
21.031352030376567
20
-32.178071434656317
30
-1.7763568394002505e-14
40
1.7500000000000038
210
-3.0814879110193954e-33
220
-1.1850468546707531e-62
230
1
0
LWPOLYLINE
5
104
100
AcDbEntity
8
0
100
AcDbPolyline
90
4
70
1
43
0.0
10
32.291733528918975
20
70.832302583884612
42
-0.99999999999999989
10
28.791733528918975
20
70.832302583884612
10
28.791733528918975
20
73.832302343884663
42
-0.99999999999999989
10
32.291733528918975
20
73.832302343884663
0
LWPOLYLINE
5
105
100
AcDbEntity
8
0
100
AcDbPolyline
90
4
70
1
43
0.0
10
52.291731928919056
20
70.832302583884626
42
-0.99999999999999989
10
48.791731928919056
20
70.832302583884669
10
48.79173192891902
20
73.832302343884706
42
-0.99999999999999989
10
52.291731928919035
20
73.832302343884706
0
LWPOLYLINE
5
106
100
AcDbEntity
8
0
100
AcDbPolyline
90
4
70
1
43
0.0
10
198.79171992891983
20
108.83229954388491
42
-0.99999999999999989
10
202.29171992891986
20
108.83229954388496
10
202.29171992891986
20
105.83229978388493
42
-0.99999999999999989
10
198.79171992891983
20
105.83229978388493
0
LWPOLYLINE
5
107
100
AcDbEntity
8
0
100
AcDbPolyline
90
4
70
1
43
0.0
10
202.29171992891989
20
35.832305383884496
42
-0.99999999999999989
10
198.79171992891986
20
35.832305383884531
10
198.79171992891986
20
38.832305143884597
42
-0.99999999999999989
10
202.29171992891989
20
38.832305143884533
0
LWPOLYLINE
5
108
100
AcDbEntity
8
0
100
AcDbPolyline
90
4
70
1
43
0.0
10
222.29171832891979
20
35.83230538388456
42
-0.99999999999999989
10
218.79171832891979
20
35.832305383884524
10
218.79171832891979
20
38.832305143884504
42
-0.99999999999999989
10
222.29171832891979
20
38.83230514388454
0
LWPOLYLINE
5
109
100
AcDbEntity
8
0
100
AcDbPolyline
90
4
70
1
43
0.0
10
123.85952392597331
20
91.313195359459471
42
-1.078857926804861
10
127.15004060272167
20
91.313190849558637
42
-0.037933292981655334
10
127.15004026007789
20
91.063190849558879
42
-1.078857926804877
10
123.85952358332946
20
91.063195359459741
42
-0.037933292981772192
0
ARC
5
110
100
AcDbEntity
8
0
100
AcDbCircle
10
125.50472898323849
20
52.438193104545576
30
-3.5527136788005009e-14
40
1.6499999999984574
210
0
220
0
230
1
100
AcDbArc
50
-188.71482054679683
51
8.7146634904542903
0
ARC
5
111
100
AcDbEntity
8
0
100
AcDbCircle
10
125.50472966852607
20
52.938193104545121
30
-1.7763568394002505e-14
40
1.6499999999984829
210
1.064150494329782e-14
220
-1.631196255694212e-15
230
1
100
AcDbArc
50
-8.7148205467986646
51
188.71466349045636
0
LWPOLYLINE
5
112
100
AcDbEntity
8
0
100
AcDbPolyline
90
8
70
1
43
0.0
10
105.54172752891935
20
77.332302063884725
10
85.541729128919272
20
97.33230046388482
10
75.541729928919182
20
97.33230046388482
10
55.541731528919101
20
77.332302063884697
10
55.541731528919129
20
67.332302863884607
10
75.541729928919196
20
47.332304463884483
10
85.541729128919286
20
47.332304463884483
10
105.54172752891937
20
67.332302863884635
0
LWPOLYLINE
5
113
100
AcDbEntity
8
0
100
AcDbPolyline
90
52
70
1
43
0.0
10
215.5074981771528
20
95.817232712254352
10
215.54171872891988
20
96.339337439366162
10
215.54171872891988
20
119.33933559936634
10
215.5074981771528
20
119.86144032647815
10
215.40542204497993
20
120.37461169695433
10
215.23723688332365
20
120.87006920636797
10
215.00582038692954
20
121.33933543936635
10
214.71513215621178
20
121.77438112059758
10
214.37014594739202
20
122.16776249783837
10
213.97676457015123
20
122.51274870665819
10
213.54171888891989
20
122.80343693737595
10
213.07245265592161
20
123.03485343377007
10
212.57699514650793
20
123.20303859542636
10
212.06382377603171
20
123.30511472759925
10
211.54171904891993
20
123.33933527936635
10
209.54171920891986
20
123.33933527936634
10
209.01961448180811
20
123.30511472759923
10
208.50644311133186
20
123.20303859542636
10
208.01098560191821
20
123.03485343377007
10
207.54171936891993
20
122.80343693737595
10
207.10667368768873
20
122.51274870665817
10
206.71329231044791
20
122.16776249783837
10
206.36830610162804
20
121.7743811205976
10
206.07761787091033
20
121.33933543936634
10
205.84620137451608
20
120.87006920636797
10
205.67801621285983
20
120.37461169695436
10
205.57594008068702
20
119.86144032647816
10
205.54171952891988
20
119.33933559936631
10
205.54171952891988
20
96.339337439366162
10
205.57594008068702
20
95.817232712254366
10
205.67801621285983
20
95.304061341778151
10
205.84620137451608
20
94.808603832364525
10
206.07761787091033
20
94.339337599366146
10
206.36830610162804
20
93.90429191813493
10
206.71329231044791
20
93.510910540894102
10
207.10667368768873
20
93.165924332074312
10
207.5417193689199
20
92.875236101356521
10
208.01098560191821
20
92.643819604962431
10
208.50644311133186
20
92.475634443306106
10
209.01961448180811
20
92.373558311133266
10
209.54171920891991
20
92.339337759366174
10
211.54171904891993
20
92.339337759366146
10
212.06382377603174
20
92.373558311133266
10
212.57699514650793
20
92.47563444330612
10
213.07245265592158
20
92.643819604962431
10
213.54171888891989
20
92.875236101356535
10
213.9767645701512
20
93.165924332074312
10
214.37014594739202
20
93.510910540894116
10
214.71513215621178
20
93.904291918134902
10
215.00582038692954
20
94.339337599366146
10
215.23723688332365
20
94.808603832364525
10
215.40542204497993
20
95.304061341778151
0
LWPOLYLINE
5
114
100
AcDbEntity
8
0
100
AcDbPolyline
90
4
70
1
43
0.0
10
153.5417236889196
20
107.33229966388495
10
193.54172048891968
20
147.33229646388526
10
57.541731368919031
20
147.33229646388517
10
97.54172816891932
20
107.33229966388494
0
LWPOLYLINE
5
115
100
AcDbEntity
8
0
100
AcDbPolyline
90
52
70
1
43
0.0
10
205.67801621285986
20
50.36758040147258
10
205.57594008068705
20
49.854409030996408
10
205.54171952891991
20
49.33230430388457
10
205.54171952891991
20
26.332306143884413
10
205.57594008068705
20
25.810201416772578
10
205.67801621285986
20
25.297030046296403
10
205.84620137451611
20
24.801572536882738
10
206.07761787091036
20
24.332306303884405
10
206.36830610162804
20
23.897260622653178
10
206.71329231044794
20
23.50387924541236
10
207.10667368768878
20
23.158893036592513
10
207.54171936891993
20
22.868204805874765
10
208.01098560191826
20
22.6367883094807
10
208.50644311133192
20
22.468603147824389
10
209.01961448180816
20
22.366527015651503
10
209.54171920891994
20
22.332306463884393
10
211.54171904891996
20
22.332306463884393
10
212.06382377603174
20
22.366527015651506
10
212.57699514650795
20
22.468603147824389
10
213.07245265592161
20
22.636788309480703
10
213.54171888891995
20
22.868204805874768
10
213.97676457015123
20
23.158893036592513
10
214.37014594739207
20
23.503879245412364
10
214.71513215621184
20
23.897260622653178
10
215.00582038692957
20
24.332306303884408
10
215.23723688332367
20
24.801572536882741
10
215.40542204497996
20
25.297030046296406
10
215.50749817715283
20
25.810201416772578
10
215.54171872891993
20
26.33230614388442
10
215.54171872891993
20
49.332304303884584
10
215.50749817715283
20
49.854409030996422
10
215.40542204497996
20
50.367580401472587
10
215.23723688332367
20
50.863037910886256
10
215.00582038692957
20
51.332304143884599
10
214.71513215621184
20
51.767349825115822
10
214.37014594739207
20
52.160731202356629
10
213.97676457015126
20
52.505717411176477
10
213.54171888891995
20
52.796405641894239
10
213.07245265592167
20
53.027822138288286
10
212.57699514650795
20
53.196007299944597
10
212.06382377603174
20
53.298083432117465
10
211.54171904891996
20
53.332303983884621
10
209.54171920891991
20
53.332303983884621
10
209.01961448180813
20
53.298083432117465
10
208.50644311133192
20
53.196007299944597
10
208.01098560191826
20
53.027822138288286
10
207.54171936891996
20
52.796405641894239
10
207.10667368768878
20
52.50571741117647
10
206.71329231044797
20
52.160731202356622
10
206.36830610162806
20
51.767349825115815
10
206.07761787091036
20
51.332304143884585
10
205.84620137451611
20
50.863037910886248
0
LWPOLYLINE
5
116
100
AcDbEntity
8
0
100
AcDbPolyline
90
8
70
1
43
0.0
10
205.54171952891988
20
67.332302863884692
10
205.54171952891988
20
77.332302063884782
10
185.54172112891973
20
97.332300463884863
10
165.54172272891961
20
97.332300463884863
10
145.54172432891946
20
77.332302063884754
10
145.54172432891951
20
67.332302863884649
10
165.54172272891972
20
47.33230446388454
10
185.54172112891976
20
47.33230446388454
0
LWPOLYLINE
5
117
100
AcDbEntity
8
0
100
AcDbPolyline
90
52
70
1
43
0.0
10
45.507511777151961
20
59.673075100665393
10
45.541732328919011
20
60.195179827777253
10
45.541732328918997
20
83.19517798777737
10
45.507511777151947
20
83.717282714889194
10
45.405435644979079
20
84.23045408536538
10
45.237250483322754
20
84.725911594779021
10
45.005833986928607
20
85.195177827777385
10
44.715145756210859
20
85.63022350900863
10
44.370159547391019
20
86.023604886249444
10
43.976778170150226
20
86.368591095069263
10
43.541732488918996
20
86.659279325786997
10
43.072466255920673
20
86.890695822181101
10
42.577008746507026
20
87.058880983837412
10
42.063837376030804
20
87.160957116010294
10
41.541732648918988
20
87.195177667777401
10
39.541732808918979
20
87.195177667777429
10
39.019628081807141
20
87.16095711601028
10
38.506456711331026
20
87.058880983837412
10
38.010999201917372
20
86.890695822181115
10
37.541732968918964
20
86.659279325787026
10
37.106687287687727
20
86.368591095069263
10
36.713305910446927
20
86.023604886249416
10
36.368319701627108
20
85.630223509008644
10
36.077631470909353
20
85.195177827777385
10
35.846214974515291
20
84.725911594779021
10
35.678029812858973
20
84.23045408536538
10
35.575953680686112
20
83.717282714889208
10
35.541733128918963
20
83.19517798777737
10
35.541733128918978
20
60.195179827777267
10
35.575953680686126
20
59.6730751006654
10
35.678029812858981
20
59.159903730189214
10
35.846214974515306
20
58.664446220775559
10
36.077631470909367
20
58.195179987777252
10
36.368319701627129
20
57.760134306546
10
36.713305910446941
20
57.366752929305214
10
37.106687287687741
20
57.021766720485331
10
37.541732968918993
20
56.73107848976759
10
38.010999201917386
20
56.499661993373529
10
38.506456711331047
20
56.331476831717211
10
39.019628081807163
20
56.22940069954435
10
39.541732808918994
20
56.195180147777208
10
41.541732648918995
20
56.195180147777194
10
42.063837376030826
20
56.22940069954435
10
42.577008746507047
20
56.331476831717211
10
43.072466255920688
20
56.499661993373529
10
43.54173248891901
20
56.73107848976759
10
43.97677817015024
20
57.021766720485346
10
44.370159547391026
20
57.366752929305221
10
44.715145756210866
20
57.760134306546007
10
45.005833986928621
20
58.195179987777252
10
45.237250483322775
20
58.664446220775559
10
45.405435644979093
20
59.159903730189214
0
LWPOLYLINE
5
118
100
AcDbEntity
8
0
100
AcDbPolyline
90
4
70
1
43
0.0
10
153.5417236889196
20
37.332305263884457
10
97.471374630175831
20
37.332305263884471
10
57.471377830175747
20
-2.6676915361158331
10
193.54172048891974
20
-2.6676915361157949
0
LWPOLYLINE
5
119
100
AcDbEntity
8
0
100
AcDbPolyline
90
36
70
1
43
0.0
10
15.54173472891884
20
175.33229422388524
10
15.541734728918836
20
179.33229390388536
10
18.541734488918806
20
182.33229366388537
10
22.541734168918815
20
182.33229366388539
10
47.541732168918941
20
157.33229566388528
10
203.5417196889199
20
157.33229566388533
10
228.54171768891996
20
182.33229366388548
10
232.54171736891999
20
182.33229366388548
10
235.54171712891997
20
179.3322939038855
10
235.54171712891997
20
175.33229422388541
10
215.54171872891985
20
155.33229582388529
10
215.54171872891988
20
135.33229742388517
10
225.54171792892004
20
125.33229822388509
10
225.54171792892006
20
87.332301263884844
10
215.54171872891993
20
77.332302063884796
10
215.54171872891993
20
67.332302863884706
10
225.54171792892006
20
57.332303663884652
10
225.54171792892015
20
19.332306703884381
10
215.54171872891996
20
9.3323075038843157
10
215.54171872891993
20
-10.667690896115831
10
235.54171712892008
20
-30.667689296115952
10
235.54171712892008
20
-34.66768897611599
10
232.54171736892008
20
-37.667688736116006
10
228.54171768892007
20
-37.667688736116006
10
203.54171968891995
20
-12.667690736115862
10
47.541732168919054
20
-12.66769073611596
10
22.541734168918946
20
-37.667688736116126
10
18.541734488918941
20
-37.667688736116133
10
15.541734728918971
20
-34.667688976116125
10
15.541734728918959
20
-30.66768929611608
10
55.541731528919144
20
9.3323075038842074
10
55.541731528919136
20
29.332305903884333
10
25.541733928918955
20
59.332303503884546
10
25.541733928918937
20
85.332301423884729
10
55.541731528919087
20
115.33229902388491
10
55.541731528919073
20
135.33229742388502
0
LWPOLYLINE
5
120
100
AcDbEntity
8
0
100
AcDbPolyline
90
4
70
1
43
0.0
10
218.79171832891973
20
108.83229954388497
42
-0.99999999999999989
10
222.29171832891976
20
108.83229954388497
10
222.29171832891976
20
105.83229978388495
42
-0.99999999999999989
10
218.79171832891973
20
105.83229978388495
0
ENDSEC
0
SECTION
2
OBJECTS
0
DICTIONARY
5
C
100
AcDbDictionary
3
ACAD_GROUP
350
D
3
ACAD_MLINESTYLE
350
17
0
DICTIONARY
5
D
100
AcDbDictionary
0
DICTIONARY
5
1A
330
C
100
AcDbDictionary
0
DICTIONARY
5
17
100
AcDbDictionary
0
ENDSEC
0
EOF
