0
SECTION
2
HEADER
9
$INSUNITS
70
4
9
$ACADVER
1
AC1014
9
$HANDSEED
5
FFFF
0
ENDSEC
0
SECTION
2
TABLES
0
TABLE
2
VPORT
5
8
100
AcDbSymbolTable
0
ENDTAB
0
TABLE
2
LTYPE
5
5
100
AcDbSymbolTable
0
LTYPE
5
14
100
AcDbSymbolTableRecord
100
AcDbLinetypeTableRecord
2
BYBLOCK
70
0
0
LTYPE
5
15
100
AcDbSymbolTableRecord
100
AcDbLinetypeTableRecord
2
BYLAYER
70
0
0
ENDTAB
0
TABLE
2
LAYER
5
2
100
AcDbSymbolTable
70
2
0
LAYER
5
50
100
AcDbSymbolTableRecord
100
AcDbLayerTableRecord
2
0
70
0
6
CONTINUOUS
0
ENDTAB
0
TABLE
2
STYLE
5
3
100
AcDbSymbolTable
70
1
0
STYLE
5
11
100
AcDbSymbolTableRecord
100
AcDbTextStyleTableRecord
2
STANDARD
70
0
0
ENDTAB
0
TABLE
2
VIEW
5
6
100
AcDbSymbolTable
70
0
0
ENDTAB
0
TABLE
2
UCS
5
7
100
AcDbSymbolTable
70
0
0
ENDTAB
0
TABLE
2
APPID
5
9
100
AcDbSymbolTable
70
2
0
APPID
5
12
100
AcDbSymbolTableRecord
100
AcDbRegAppTableRecord
2
ACAD
70
0
0
ENDTAB
0
TABLE
2
DIMSTYLE
5
A
100
AcDbSymbolTable
70
1
0
ENDTAB
0
TABLE
2
BLOCK_RECORD
5
1
100
AcDbSymbolTable
70
1
0
BLOCK_RECORD
5
1F
100
AcDbSymbolTableRecord
100
AcDbBlockTableRecord
2
*MODEL_SPACE
0
BLOCK_RECORD
5
1B
100
AcDbSymbolTableRecord
100
AcDbBlockTableRecord
2
*PAPER_SPACE
0
ENDTAB
0
ENDSEC
0
SECTION
2
BLOCKS
0
BLOCK
5
20
100
AcDbEntity
100
AcDbBlockBegin
2
*MODEL_SPACE
0
ENDBLK
5
21
100
AcDbEntity
100
AcDbBlockEnd
0
BLOCK
5
1C
100
AcDbEntity
100
AcDbBlockBegin
2
*PAPER_SPACE
0
ENDBLK
5
1D
100
AcDbEntity
100
AcDbBlockEnd
0
ENDSEC
0
SECTION
2
ENTITIES
0
CIRCLE
5
100
100
AcDbEntity
8
0
100
AcDbCircle
10
230.0520998274576
20
176.84267636242996
30
-3.5527136788005009e-14
40
4.3750000000000018
210
1.8200458569897084e-46
220
3.9443045261050608e-31
230
1
0
CIRCLE
5
101
100
AcDbEntity
8
0
100
AcDbCircle
10
230.05209982745757
20
-32.157306917571674
30
-1.7763568394002505e-14
40
4.3750000000000018
210
1.8200458569897084e-46
220
3.9443045261050608e-31
230
1
0
CIRCLE
5
102
100
AcDbEntity
8
0
100
AcDbCircle
10
21.031352030376542
20
-32.178071434656374
30
-1.7763568394002505e-14
40
4.3749999999999982
210
3.6400917139748648e-46
220
3.9443045261050599e-31
230
1
0
CIRCLE
5
103
100
AcDbEntity
8
0
100
AcDbCircle
10
21.031352030377235
20
176.84267636242654
30
-1.7763568394002505e-14
40
4.3750000000000018
210
1.8200458569897084e-46
220
3.9443045261050608e-31
230
1
0
LWPOLYLINE
5
104
100
AcDbEntity
8
0
100
AcDbPolyline
90
4
70
1
43
0.0
10
32.291733528918968
20
70.832302583884598
42
-0.99999999999999989
10
28.791733528918968
20
70.832302583884598
10
28.791733528918968
20
73.832302343884649
42
-0.99999999999999989
10
32.291733528918968
20
73.832302343884649
0
LWPOLYLINE
5
105
100
AcDbEntity
8
0
100
AcDbPolyline
90
4
70
1
43
0.0
10
52.291731928919063
20
70.832302583884598
42
-0.99999999999999989
10
48.791731928919049
20
70.832302583884641
10
48.791731928919013
20
73.832302343884692
42
-0.99999999999999989
10
52.291731928919027
20
73.832302343884692
0
LWPOLYLINE
5
106
100
AcDbEntity
8
0
100
AcDbPolyline
90
4
70
1
43
0.0
10
198.79171992891983
20
108.8322995438849
42
-0.99999999999999989
10
202.29171992891986
20
108.83229954388494
10
202.29171992891986
20
105.83229978388491
42
-0.99999999999999989
10
198.79171992891983
20
105.83229978388491
0
LWPOLYLINE
5
107
100
AcDbEntity
8
0
100
AcDbPolyline
90
4
70
1
43
0.0
10
202.29171992891989
20
35.832305383884474
42
-0.99999999999999989
10
198.79171992891986
20
35.832305383884503
10
198.79171992891986
20
38.832305143884568
42
-0.99999999999999989
10
202.29171992891989
20
38.832305143884511
0
LWPOLYLINE
5
108
100
AcDbEntity
8
0
100
AcDbPolyline
90
4
70
1
43
0.0
10
222.29171832891979
20
35.832305383884531
42
-0.99999999999999989
10
218.79171832891979
20
35.832305383884496
10
218.79171832891979
20
38.83230514388449
42
-0.99999999999999989
10
222.29171832891979
20
38.832305143884518
0
LWPOLYLINE
5
109
100
AcDbEntity
8
0
100
AcDbPolyline
90
4
70
1
43
0.0
10
123.85952392597331
20
91.313195359459471
42
-1.078857926804867
10
127.15004060272166
20
91.313190849558623
42
-0.037933292981660899
10
127.15004026007789
20
91.063190849558865
42
-1.078857926804877
10
123.85952358332949
20
91.063195359459741
42
-0.037933292981769298
0
ARC
5
110
100
AcDbEntity
8
0
100
AcDbCircle
10
125.50472898323849
20
52.438193104545547
30
-3.5527136788005009e-14
40
1.6499999999984574
210
0
220
0
230
1
100
AcDbArc
50
-188.71482054679683
51
8.7146634904542903
0
ARC
5
111
100
AcDbEntity
8
0
100
AcDbCircle
10
125.50472966852607
20
52.938193104545093
30
-1.7763568394002505e-14
40
1.6499999999984829
210
1.064150494329782e-14
220
-1.631196255694212e-15
230
1
100
AcDbArc
50
-8.7148205467986646
51
188.71466349045636
0
LWPOLYLINE
5
112
100
AcDbEntity
8
0
100
AcDbPolyline
90
8
70
1
43
0.0
10
105.54172752891932
20
77.332302063884697
10
85.541729128919272
20
97.332300463884778
10
75.541729928919153
20
97.332300463884778
10
55.541731528919094
20
77.332302063884683
10
55.541731528919115
20
67.332302863884593
10
75.541729928919196
20
47.332304463884462
10
85.541729128919272
20
47.332304463884469
10
105.54172752891935
20
67.332302863884607
0
LWPOLYLINE
5
113
100
AcDbEntity
8
0
100
AcDbPolyline
90
52
70
1
43
0.0
10
215.5074981771528
20
95.817232712254338
10
215.54171872891988
20
96.339337439366147
10
215.54171872891988
20
119.33933559936632
10
215.5074981771528
20
119.86144032647812
10
215.40542204497993
20
120.37461169695432
10
215.23723688332365
20
120.87006920636794
10
215.00582038692954
20
121.33933543936632
10
214.71513215621178
20
121.77438112059758
10
214.37014594739202
20
122.16776249783835
10
213.97676457015123
20
122.51274870665816
10
213.54171888891989
20
122.80343693737593
10
213.07245265592161
20
123.03485343377004
10
212.57699514650793
20
123.20303859542635
10
212.06382377603171
20
123.30511472759922
10
211.54171904891993
20
123.33933527936631
10
209.54171920891986
20
123.33933527936631
10
209.01961448180811
20
123.30511472759922
10
208.50644311133186
20
123.20303859542635
10
208.01098560191821
20
123.03485343377004
10
207.54171936891993
20
122.80343693737593
10
207.10667368768873
20
122.51274870665816
10
206.71329231044791
20
122.16776249783834
10
206.36830610162804
20
121.77438112059755
10
206.07761787091033
20
121.33933543936629
10
205.84620137451608
20
120.87006920636794
10
205.67801621285983
20
120.37461169695435
10
205.57594008068702
20
119.86144032647813
10
205.54171952891988
20
119.33933559936631
10
205.54171952891988
20
96.339337439366147
10
205.57594008068702
20
95.817232712254352
10
205.67801621285983
20
95.304061341778123
10
205.84620137451608
20
94.808603832364483
10
206.07761787091033
20
94.339337599366132
10
206.36830610162804
20
93.904291918134888
10
206.71329231044791
20
93.510910540894088
10
207.10667368768873
20
93.165924332074269
10
207.5417193689199
20
92.875236101356506
10
208.01098560191821
20
92.643819604962388
10
208.50644311133186
20
92.475634443306078
10
209.01961448180811
20
92.373558311133252
10
209.54171920891991
20
92.339337759366131
10
211.54171904891993
20
92.339337759366131
10
212.06382377603174
20
92.373558311133223
10
212.57699514650793
20
92.475634443306092
10
213.07245265592158
20
92.643819604962388
10
213.54171888891989
20
92.875236101356521
10
213.9767645701512
20
93.165924332074269
10
214.37014594739202
20
93.510910540894088
10
214.71513215621178
20
93.904291918134888
10
215.00582038692954
20
94.339337599366132
10
215.23723688332365
20
94.808603832364483
10
215.40542204497993
20
95.304061341778123
0
LWPOLYLINE
5
114
100
AcDbEntity
8
0
100
AcDbPolyline
90
4
70
1
43
0.0
10
153.5417236889196
20
107.33229966388492
10
193.54172048891968
20
147.3322964638852
10
57.541731368919017
20
147.33229646388514
10
97.541728168919306
20
107.33229966388492
0
LWPOLYLINE
5
115
100
AcDbEntity
8
0
100
AcDbPolyline
90
52
70
1
43
0.0
10
205.67801621285986
20
50.367580401472559
10
205.57594008068705
20
49.854409030996393
10
205.54171952891991
20
49.332304303884555
10
205.54171952891991
20
26.332306143884388
10
205.57594008068705
20
25.810201416772554
10
205.67801621285986
20
25.297030046296385
10
205.84620137451611
20
24.80157253688272
10
206.07761787091036
20
24.332306303884383
10
206.36830610162804
20
23.89726062265315
10
206.71329231044794
20
23.503879245412339
10
207.10667368768878
20
23.158893036592492
10
207.54171936891993
20
22.868204805874743
10
208.01098560191826
20
22.636788309480679
10
208.50644311133192
20
22.468603147824364
10
209.01961448180816
20
22.366527015651481
10
209.54171920891994
20
22.332306463884372
10
211.54171904891996
20
22.332306463884372
10
212.06382377603174
20
22.366527015651485
10
212.57699514650795
20
22.468603147824368
10
213.07245265592161
20
22.636788309480682
10
213.54171888891995
20
22.868204805874747
10
213.97676457015123
20
23.158893036592495
10
214.37014594739207
20
23.503879245412342
10
214.71513215621184
20
23.897260622653157
10
215.00582038692957
20
24.332306303884383
10
215.23723688332367
20
24.801572536882723
10
215.40542204497996
20
25.297030046296385
10
215.50749817715283
20
25.810201416772557
10
215.54171872891993
20
26.332306143884402
10
215.54171872891993
20
49.332304303884563
10
215.50749817715283
20
49.854409030996393
10
215.40542204497996
20
50.367580401472566
10
215.23723688332367
20
50.863037910886234
10
215.00582038692957
20
51.332304143884571
10
214.71513215621184
20
51.767349825115794
10
214.37014594739207
20
52.160731202356615
10
213.97676457015126
20
52.505717411176455
10
213.54171888891995
20
52.796405641894211
10
213.07245265592167
20
53.027822138288272
10
212.57699514650795
20
53.196007299944583
10
212.06382377603174
20
53.298083432117451
10
211.54171904891996
20
53.3323039838846
10
209.54171920891991
20
53.3323039838846
10
209.01961448180813
20
53.298083432117451
10
208.50644311133192
20
53.196007299944569
10
208.01098560191826
20
53.027822138288272
10
207.54171936891996
20
52.796405641894211
10
207.10667368768878
20
52.505717411176448
10
206.71329231044797
20
52.160731202356601
10
206.36830610162806
20
51.767349825115787
10
206.07761787091036
20
51.332304143884571
10
205.84620137451611
20
50.863037910886234
0
LWPOLYLINE
5
116
100
AcDbEntity
8
0
100
AcDbPolyline
90
8
70
1
43
0.0
10
205.54171952891988
20
67.332302863884678
10
205.54171952891988
20
77.332302063884768
10
185.54172112891973
20
97.332300463884849
10
165.54172272891961
20
97.332300463884835
10
145.54172432891946
20
77.332302063884725
10
145.54172432891951
20
67.332302863884635
10
165.54172272891972
20
47.332304463884526
10
185.54172112891976
20
47.332304463884526
0
LWPOLYLINE
5
117
100
AcDbEntity
8
0
100
AcDbPolyline
90
52
70
1
43
0.0
10
45.507511777151954
20
59.673075100665365
10
45.541732328918997
20
60.195179827777224
10
45.541732328918989
20
83.195177987777356
10
45.507511777151933
20
83.717282714889166
10
45.405435644979065
20
84.230454085365366
10
45.237250483322747
20
84.725911594778992
10
45.0058339869286
20
85.195177827777371
10
44.715145756210852
20
85.630223509008587
10
44.370159547391012
20
86.023604886249402
10
43.976778170150219
20
86.36859109506922
10
43.541732488918981
20
86.659279325786983
10
43.072466255920659
20
86.890695822181087
10
42.577008746507019
20
87.058880983837398
10
42.063837376030797
20
87.16095711601028
10
41.54173264891898
20
87.195177667777386
10
39.541732808918972
20
87.195177667777415
10
39.019628081807134
20
87.160957116010266
10
38.506456711331019
20
87.058880983837398
10
38.010999201917357
20
86.890695822181087
10
37.541732968918957
20
86.659279325786983
10
37.10668728768772
20
86.36859109506922
10
36.71330591044692
20
86.023604886249402
10
36.368319701627101
20
85.630223509008601
10
36.077631470909346
20
85.195177827777371
10
35.846214974515284
20
84.725911594778992
10
35.678029812858966
20
84.230454085365352
10
35.575953680686105
20
83.71728271488918
10
35.541733128918956
20
83.195177987777356
10
35.54173312891897
20
60.195179827777238
10
35.575953680686119
20
59.673075100665386
10
35.678029812858973
20
59.159903730189185
10
35.846214974515298
20
58.664446220775531
10
36.07763147090936
20
58.19517998777723
10
36.368319701627115
20
57.760134306545979
10
36.713305910446934
20
57.366752929305193
10
37.106687287687734
20
57.02176672048531
10
37.541732968918986
20
56.731078489767562
10
38.010999201917379
20
56.4996619933735
10
38.50645671133104
20
56.331476831717183
10
39.019628081807156
20
56.229400699544321
10
39.541732808918987
20
56.19518014777718
10
41.541732648918988
20
56.195180147777172
10
42.063837376030818
20
56.229400699544321
10
42.577008746507033
20
56.331476831717197
10
43.072466255920681
20
56.4996619933735
10
43.541732488919003
20
56.731078489767562
10
43.976778170150233
20
57.021766720485317
10
44.370159547391019
20
57.3667529293052
10
44.715145756210859
20
57.760134306545979
10
45.005833986928614
20
58.19517998777723
10
45.237250483322768
20
58.664446220775531
10
45.405435644979086
20
59.159903730189185
0
LWPOLYLINE
5
118
100
AcDbEntity
8
0
100
AcDbPolyline
90
4
70
1
43
0.0
10
153.5417236889196
20
37.332305263884436
10
97.471374630175831
20
37.33230526388445
10
57.471377830175726
20
-2.6676915361158597
10
193.54172048891974
20
-2.6676915361158171
0
LWPOLYLINE
5
119
100
AcDbEntity
8
0
100
AcDbPolyline
90
34
70
1
43
0.0
10
14.699288860914596
20
183.56861937075396
10
23.690157955263757
20
185.68937542971273
10
52.047237721091193
20
157.33229566388533
10
199.22801062992852
20
157.33229566388536
10
227.66123190167608
20
185.76551693563323
10
236.58407247487935
20
183.37464900985182
10
238.97494040066084
20
174.45180843664849
10
215.54171872891959
20
151.01858676490704
10
215.54171872891988
20
135.33229742388517
10
225.54171792892004
20
125.33229822388506
10
225.54171792892006
20
87.33230126388483
10
215.54171872891993
20
77.332302063884768
10
215.54171872891993
20
67.332302863884678
10
225.54171792892006
20
57.33230366388463
10
225.54171792892015
20
19.33230670388436
10
215.54171872891996
20
9.3323075038842873
10
215.54171872891965
20
-6.3332173200490827
10
238.97494040066081
20
-29.766438991790171
10
236.58407247487941
20
-38.689279564993484
10
227.6612319016761
20
-41.080147490774976
10
199.248775147017
20
-12.667690736115912
10
51.85544122790148
20
-12.667690736116
10
23.422219956158017
20
-41.100912007859648
10
14.499379382954739
20
-38.710044082078198
10
12.108511457173261
20
-29.787203508874896
10
55.541731528919065
20
13.646016562871186
10
55.541731528919129
20
29.332305903884304
10
25.541733928918944
20
59.332303503884503
10
25.54173392891893
20
85.332301423884687
10
55.541731528919073
20
115.3322990238849
10
55.541731528918994
20
131.22067171057694
10
21.621946776688294
20
165.14045646280772
10
18.372546105490724
20
167.99597729514039
10
12.040482936028079
20
174.72192030346781
0
LWPOLYLINE
5
120
100
AcDbEntity
8
0
100
AcDbPolyline
90
4
70
1
43
0.0
10
218.79171832891973
20
108.83229954388494
42
-0.99999999999999989
10
222.29171832891976
20
108.83229954388494
10
222.29171832891976
20
105.83229978388493
42
-0.99999999999999989
10
218.79171832891973
20
105.83229978388493
0
ENDSEC
0
SECTION
2
OBJECTS
0
DICTIONARY
5
C
100
AcDbDictionary
3
ACAD_GROUP
350
D
3
ACAD_MLINESTYLE
350
17
0
DICTIONARY
5
D
100
AcDbDictionary
0
DICTIONARY
5
1A
330
C
100
AcDbDictionary
0
DICTIONARY
5
17
100
AcDbDictionary
0
ENDSEC
0
EOF
